Patient4_TMGait_0pt3_03_left_06_GRF.mot
version=1
nRows=51
nColumns=19
inDegrees=no
endheader
time	F1x	F1y	F1z	M1x	M1y	M1z	F2x	F2y	F2z	M2x	M2y	M2z	EC1x	EC1y	EC1z	EC2x	EC2y	EC2z
10.27	0.021065	-5.4498	0.6626	0.50565	-2.4696	-2.6766	0.64643	741.3152	-39.7493	273.16	41.3939	724.2281	-0.0592	0.0182	-0.0073	-0.0462	0.0165	0.9585
10.2894	-0.082128	-3.5588	0.60322	0.29302	-1.8726	-1.6254	-1.5773	760.7456	-38.7198	280.2643	41.7804	742.6934	-0.0592	0.0182	-0.0073	-0.0462	0.0165	0.9585
10.3089	-0.16542	-1.9158	0.52428	0.10885	-1.3299	-0.69968	-4.1247	784.6977	-37.9475	289.048	42.3275	764.9857	-0.0592	0.0182	-0.0073	-0.0462	0.0165	0.9585
10.3283	-0.22394	-0.62613	0.44683	-0.038678	-0.89442	0.042645	-6.6998	811.6115	-37.5326	298.9076	42.9763	789.5761	-0.0592	0.0182	-0.0073	-0.0462	0.0165	0.9585
10.3477	-0.26034	0.30099	0.3842	-0.14896	-0.58117	0.58765	-8.9988	838.9234	-37.5103	308.8607	43.6495	814.0592	-0.0592	0.0182	-0.0073	-0.0462	0.0165	0.9585
10.3671	-0.28046	0.90339	0.34338	-0.22382	-0.3848	0.94469	-10.7908	863.5061	-37.8443	317.7224	44.2536	835.5388	-0.0592	0.0182	-0.0073	-0.0462	0.0165	0.9585
10.3866	-0.29159	1.2274	0.32473	-0.26233	-0.28533	1.1345	-11.9223	882.3576	-38.4292	324.3689	44.6704	851.2541	-0.0592	0.0182	-0.0073	-0.0462	0.0165	0.9585
10.406	-0.30185	1.3107	0.32396	-0.26032	-0.25647	1.1709	-12.314	893.2129	-39.1196	327.9651	44.7719	859.1434	-0.0592	0.0182	-0.0073	-0.0462	0.0165	0.9585
10.4254	-0.3189	1.1742	0.33558	-0.20904	-0.27461	1.0479	-11.9645	894.8818	-39.7772	328.0857	44.4613	858.1588	-0.0592	0.0182	-0.0073	-0.0462	0.0165	0.9585
10.4449	-0.34931	0.81696	0.35309	-0.094459	-0.31929	0.73315	-10.9294	887.3679	-40.2989	324.7546	43.6985	848.3632	-0.0592	0.0182	-0.0073	-0.0462	0.0165	0.9585
10.4643	-0.39508	0.2203	0.36803	0.099727	-0.37144	0.18271	-9.2828	871.7713	-40.6275	318.4052	42.4945	830.8345	-0.0592	0.0182	-0.0073	-0.0462	0.0165	0.9585
10.4837	-0.4531	-0.63554	0.3699	0.38636	-0.41234	-0.64398	-7.1018	850.0073	-40.7621	309.771	40.9118	807.3967	-0.0592	0.0182	-0.0073	-0.0462	0.0165	0.9585
10.5031	-0.51305	-1.7499	0.34603	0.76842	-0.42239	-1.7652	-4.4609	824.436	-40.7419	299.7464	39.0464	780.2703	-0.0592	0.0182	-0.0073	-0.0462	0.0165	0.9585
10.5226	-0.55466	-3.0715	0.28133	1.229	-0.37924	-3.1415	-1.431	797.4947	-40.6292	289.2496	37.0107	751.7291	-0.0592	0.0182	-0.0073	-0.0462	0.0165	0.9585
10.542	-0.54952	-4.4646	0.15795	1.7183	-0.25619	-4.6376	1.9278	771.4028	-40.4923	279.1131	34.9109	723.8372	-0.0592	0.0182	-0.0073	-0.0462	0.0165	0.9585
10.5614	-0.46172	-5.6659	-0.043489	2.1372	-0.019998	-5.9719	5.5586	747.9635	-40.3802	270.0112	32.8252	698.2704	-0.0592	0.0182	-0.0073	-0.0462	0.0165	0.9585
10.5809	-0.24506	-6.2333	-0.33808	2.3183	0.36228	-6.6697	9.4095	728.444	-40.3196	262.4135	30.7998	676.205	-0.0592	0.0182	-0.0073	-0.0462	0.0165	0.9585
10.6003	0.14859	-5.4964	-0.72548	2.0097	0.91078	-6.0203	13.4418	713.5054	-40.3338	256.5587	28.8688	658.2604	-0.0592	0.0182	-0.0073	-0.0462	0.0165	0.9585
10.6197	0.76186	-2.5378	-1.1776	0.86889	1.6151	-3.0509	17.6048	703.1612	-40.4457	252.4418	27.0683	644.467	-0.0592	0.0182	-0.0073	-0.0462	0.0165	0.9585
10.6391	1.6215	3.7745	-1.6266	-1.5221	2.4106	3.4443	21.8095	696.7886	-40.6767	249.8241	25.4424	634.2893	-0.0592	0.0182	-0.0073	-0.0462	0.0165	0.9585
10.6586	2.7163	14.6697	-1.9494	-5.6127	3.1546	14.7826	25.923	693.2395	-41.0332	248.2797	24.0333	626.7315	-0.0592	0.0182	-0.0073	-0.0462	0.0165	0.9585
10.678	3.9644	31.2321	-1.9493	-11.7944	3.5983	32.1482	29.7779	690.9956	-41.4797	247.2568	22.8581	620.4806	-0.0592	0.0182	-0.0073	-0.0462	0.0165	0.9585
10.6974	5.1215	54.047	-1.3514	-20.2666	3.3492	56.2189	33.1828	688.3326	-41.916	246.1384	21.8878	614.0635	-0.0592	0.0182	-0.0073	-0.0462	0.0165	0.9585
10.7169	5.625	82.741	0.1544	-30.864	1.8624	86.678	35.938	683.4901	-42.191	244.2975	21.0525	605.9931	-0.0592	0.0182	-0.0073	-0.0462	0.0165	0.9585
10.7363	4.8664	115.6041	2.8165	-42.9179	-1.3539	121.8125	37.8664	674.8912	-42.1542	241.1685	20.2715	594.9532	-0.0592	0.0182	-0.0073	-0.0462	0.0165	0.9585
10.7557	2.8184	149.8805	6.616	-55.3822	-6.2837	158.749	38.873	661.3845	-41.707	236.3314	19.4796	579.9936	-0.0592	0.0182	-0.0073	-0.0462	0.0165	0.9585
10.7751	-0.11762	182.7833	11.0183	-67.2415	-12.1869	194.4988	38.994	642.4241	-40.8352	229.5753	18.6454	560.6676	-0.0592	0.0182	-0.0073	-0.0462	0.0165	0.9585
10.7946	-3.5682	213.0223	15.3011	-78.0536	-18.1314	227.6542	38.3922	618.1416	-39.6068	220.9245	17.7694	537.0861	-0.0592	0.0182	-0.0073	-0.0462	0.0165	0.9585
10.814	-7.3512	241.0432	18.9693	-88.009	-23.5176	258.6674	37.2983	589.2846	-38.1176	210.6252	16.8565	509.8725	-0.0592	0.0182	-0.0073	-0.0462	0.0165	0.9585
10.8334	-11.3181	267.8639	21.8286	-97.4961	-28.0922	288.579	35.9242	556.9832	-36.422	199.0715	15.8846	479.972	-0.0592	0.0182	-0.0073	-0.0462	0.0165	0.9585
10.8529	-15.277	294.2198	23.962	-106.7849	-31.8839	318.1067	34.3885	522.552	-34.5513	186.734	14.8443	448.4918	-0.0592	0.0182	-0.0073	-0.0462	0.0165	0.9585
10.8723	-18.9908	320.3325	25.6122	-115.9485	-35.0693	347.4135	32.7175	487.3767	-32.5782	174.1135	13.7879	416.6047	-0.0592	0.0182	-0.0073	-0.0462	0.0165	0.9585
10.8917	-22.2426	345.8851	27.0203	-124.8643	-37.8263	376.0897	30.8906	452.8307	-30.6034	161.7078	12.8026	385.4736	-0.0592	0.0182	-0.0073	-0.0462	0.0165	0.9585
10.9111	-24.8953	370.2771	28.297	-133.3155	-40.2223	403.4249	28.8908	420.1528	-28.7016	149.9689	11.9546	356.145	-0.0592	0.0182	-0.0073	-0.0462	0.0165	0.9585
10.9306	-26.8909	393.0202	29.4141	-141.1321	-42.2041	428.8306	26.7384	390.2681	-26.8938	139.2353	11.2542	329.3966	-0.0592	0.0182	-0.0073	-0.0462	0.0165	0.9585
10.95	-28.2382	413.8937	30.3097	-148.2461	-43.705	452.0169	24.5001	363.6075	-25.153	129.6663	10.6579	305.5793	-0.0592	0.0182	-0.0073	-0.0462	0.0165	0.9585
10.9694	-29.0071	432.9704	30.9517	-154.6917	-44.7099	473.0132	22.2638	340.0004	-23.4269	121.2031	10.0959	284.5321	-0.0592	0.0182	-0.0073	-0.0462	0.0165	0.9585
10.9889	-29.3139	450.6223	31.365	-160.6039	-45.2788	492.1752	20.1011	318.6937	-21.6614	113.5778	9.5011	265.6162	-0.0592	0.0182	-0.0073	-0.0462	0.0165	0.9585
11.0083	-29.2888	467.4927	31.6566	-166.2107	-45.5605	510.1477	18.0521	298.54	-19.8213	106.3818	8.8302	247.8687	-0.0592	0.0182	-0.0073	-0.0462	0.0165	0.9585
11.0277	-29.0227	484.4404	31.9794	-171.8181	-45.7399	527.7994	16.1224	278.3352	-17.8985	99.1859	8.0708	230.281	-0.0592	0.0182	-0.0073	-0.0462	0.0165	0.9585
11.0471	-28.5419	502.3329	32.4566	-177.7433	-45.9538	546.0123	14.2965	257.1406	-15.9097	91.6542	7.2388	212.0708	-0.0592	0.0182	-0.0073	-0.0462	0.0165	0.9585
11.0666	-27.8092	521.7458	33.1284	-184.2097	-46.2327	565.3664	12.5647	234.4704	-13.8958	83.6114	6.3675	192.833	-0.0592	0.0182	-0.0073	-0.0462	0.0165	0.9585
11.086	-26.7453	542.7682	33.9521	-191.2733	-46.5074	585.9324	10.9262	210.3659	-11.9245	75.07	5.5053	172.5915	-0.0592	0.0182	-0.0073	-0.0462	0.0165	0.9585
11.1054	-25.2814	565.0534	34.8324	-198.8341	-46.6571	607.3353	9.3853	185.3839	-10.0849	66.224	4.7111	151.7812	-0.0592	0.0182	-0.0073	-0.0462	0.0165	0.9585
11.1249	-23.4121	588.0208	35.6612	-206.7037	-46.5682	628.9818	7.9403	160.4276	-8.4737	57.3878	4.0504	131.1101	-0.0592	0.0182	-0.0073	-0.0462	0.0165	0.9585
11.1443	-21.2143	611.0897	36.3773	-214.6821	-46.2022	650.3021	6.5712	136.4772	-7.1731	48.9021	3.5844	111.3492	-0.0592	0.0182	-0.0073	-0.0462	0.0165	0.9585
11.1637	-18.8372	633.8899	37.0058	-222.6283	-45.6318	670.9562	5.2518	114.3436	-6.2196	41.0485	3.3445	93.1399	-0.0592	0.0182	-0.0073	-0.0462	0.0165	0.9585
11.1831	-16.4731	656.3457	37.6505	-230.4943	-45.0258	690.9209	3.9691	94.5085	-5.5799	33.9953	3.3077	76.8534	-0.0592	0.0182	-0.0073	-0.0462	0.0165	0.9585
11.2026	-14.3195	678.6276	38.4648	-238.3132	-44.6122	710.4265	2.7182	77.0782	-5.1594	27.7812	3.405	62.5641	-0.0592	0.0182	-0.0073	-0.0462	0.0165	0.9585
11.222	-12.5381	701.0513	39.6079	-246.1694	-44.6204	729.8392	1.5133	61.8649	-4.8368	22.343	3.54	50.1159	-0.0592	0.0182	-0.0073	-0.0462	0.0165	0.9585
11.2414	-11.2073	723.9678	41.2025	-254.1643	-45.2158	749.5382	0.39048	48.5507	-4.4907	17.5718	3.6101	39.2562	-0.0592	0.0182	-0.0073	-0.0462	0.0165	0.9585
